<?xml version="1.0" encoding="utf-8"?>
<!-- Generator: Adobe Illustrator 22.1.0, SVG Export Plug-In . SVG Version: 6.00 Build 0)  -->
<svg version="1.1" id="Layer_1" xmlns="http://www.w3.org/2000/svg" xmlns:xlink="http://www.w3.org/1999/xlink" x="0px" y="0px"
	 viewBox="0 0 104.1 104.1" style="enable-background:new 0 0 104.1 104.1;" xml:space="preserve">
<style type="text/css">
	.st0{opacity:0.72;clip-path:url(#SVGID_2_);fill:none;stroke:#CCCCCC;stroke-width:0.9912;stroke-miterlimit:10;}
	.st1{clip-path:url(#SVGID_2_);fill:#CCCCCC;}
	.st2{clip-path:url(#SVGID_2_);}
	.st3{fill:#CCCCCC;}
</style>
<g>
	<defs>
		<rect id="SVGID_1_" width="104.1" height="104.1"/>
	</defs>
	<clipPath id="SVGID_2_">
		<use xlink:href="#SVGID_1_"  style="overflow:visible;"/>
	</clipPath>
	<line class="st0" x1="54.5" y1="54.5" x2="115.5" y2="115.5"/>
	<line class="st0" x1="-11.4" y1="-11.4" x2="46.9" y2="46.9"/>
	<line class="st0" x1="115.5" y1="-11.4" x2="56.8" y2="47.2"/>
	<line class="st0" x1="47.2" y1="56.9" x2="-11.4" y2="115.5"/>
	<polygon class="st1" points="104.2,7.7 98.2,0 104.2,0 	"/>
	<polygon class="st1" points="98.2,104.1 104.2,96.4 104.2,104.1 	"/>
	<polygon class="st1" points="0,96.4 6,104.1 0,104.1 	"/>
	<polygon class="st1" points="6,0 0,7.7 0,0 	"/>
	<g class="st2">
		<g>
			<path class="st3" d="M51.4,56.9c0.8-0.1,1.5-0.8,1.5-2.1c0-0.7-0.4-1.2-0.8-1.7L51.4,56.9z M51,48.7c0,0.8,0.4,1.4,0.9,2l0.7-3.6
				c0,0-0.1,0-0.1,0C51.7,47.1,51,47.8,51,48.7z M52,43.8c-4.6,0-8.3,3.7-8.3,8.3c0,4.6,3.7,8.3,8.3,8.3c4.6,0,8.3-3.7,8.3-8.3
				C60.3,47.5,56.6,43.8,52,43.8z M55.1,50.1l-1.3-0.3c0.4-1.5,0-2.3-0.6-2.6l-0.7,4c0.9,0.9,2,1.9,2,3.3c0,2.2-1.6,3.2-3.2,3.1
				l-0.4,2h-0.7l0.4-2.1c-1.5-0.3-2.8-1.5-2.4-3.5l1.4,0.2c-0.3,1.4,0.4,2.2,1.1,2.5l0.8-4.3c-0.9-0.9-1.9-1.8-1.9-3.3
				c0-1.6,1.1-2.9,3-2.9c0,0,0.1,0,0.1,0l0.3-1.8l0.6,0l-0.4,1.9C54.7,46.8,55.6,48.2,55.1,50.1z"/>
		</g>
	</g>
</g>
</svg>
